<svg width="35" height="35" viewBox="0 0 35 35" fill="none" xmlns="http://www.w3.org/2000/svg">
<path d="M17.5 2.91667C9.44561 2.91667 2.91666 9.44563 2.91666 17.5C2.91666 25.5544 9.44561 32.0833 17.5 32.0833C25.5544 32.0833 32.0833 25.5544 32.0833 17.5C32.0833 9.44563 25.5544 2.91667 17.5 2.91667Z" fill="url(#paint0_linear)"/>
<path d="M19.4739 21.3653H23.248L23.8408 17.5313H19.4739V15.4357C19.4739 13.8432 19.9945 12.4308 21.4842 12.4308H23.878V9.0854C23.4573 9.02853 22.5677 8.90457 20.887 8.90457C17.3768 8.90457 15.3191 10.7581 15.3191 14.9814V17.5321H11.7104V21.366H15.3183V31.9039C16.0329 32.0104 16.757 32.0833 17.5 32.0833C18.1716 32.0833 18.8271 32.0221 19.4739 31.9346V21.3653Z" fill="white"/>
<defs>
<linearGradient id="paint0_linear" x1="7.28655" y1="7.28657" x2="29.6151" y2="29.6151" gradientUnits="userSpaceOnUse">
<stop stop-color="#2AA4F4"/>
<stop offset="1" stop-color="#007AD9"/>
</linearGradient>
</defs>
</svg>
