<svg width="35" height="35" viewBox="0 0 35 35" fill="none" xmlns="http://www.w3.org/2000/svg">
<path d="M24.8041 30.6177L10.2207 30.6316C7.0124 30.6345 4.38521 28.0124 4.38156 24.8041L4.36771 10.2207C4.36479 7.0124 6.98688 4.38522 10.1952 4.38157L24.7785 4.36772C27.9869 4.3648 30.6141 6.98688 30.6177 10.1952L30.6316 24.7785C30.6352 27.9876 28.0124 30.6148 24.8041 30.6177Z" fill="url(#paint0_radial)"/>
<path d="M24.8041 30.6177L10.2207 30.6316C7.0124 30.6345 4.38521 28.0124 4.38156 24.8041L4.36771 10.2207C4.36479 7.0124 6.98688 4.38522 10.1952 4.38157L24.7785 4.36772C27.9869 4.3648 30.6141 6.98688 30.6177 10.1952L30.6316 24.7785C30.6352 27.9876 28.0124 30.6148 24.8041 30.6177Z" fill="url(#paint1_radial)"/>
<path d="M17.5 22.6042C14.6862 22.6042 12.3958 20.3146 12.3958 17.5C12.3958 14.6854 14.6862 12.3958 17.5 12.3958C20.3139 12.3958 22.6042 14.6854 22.6042 17.5C22.6042 20.3146 20.3139 22.6042 17.5 22.6042ZM17.5 13.8542C15.4897 13.8542 13.8542 15.4897 13.8542 17.5C13.8542 19.5103 15.4897 21.1458 17.5 21.1458C19.5103 21.1458 21.1458 19.5103 21.1458 17.5C21.1458 15.4897 19.5103 13.8542 17.5 13.8542Z" fill="white"/>
<path d="M22.9688 13.125C23.5728 13.125 24.0625 12.6353 24.0625 12.0312C24.0625 11.4272 23.5728 10.9375 22.9688 10.9375C22.3647 10.9375 21.875 11.4272 21.875 12.0312C21.875 12.6353 22.3647 13.125 22.9688 13.125Z" fill="white"/>
<path d="M21.875 26.9792H13.125C10.3112 26.9792 8.02084 24.6896 8.02084 21.875V13.125C8.02084 10.3104 10.3112 8.02084 13.125 8.02084H21.875C24.6889 8.02084 26.9792 10.3104 26.9792 13.125V21.875C26.9792 24.6896 24.6889 26.9792 21.875 26.9792ZM13.125 9.47917C11.1147 9.47917 9.47918 11.1147 9.47918 13.125V21.875C9.47918 23.8853 11.1147 25.5208 13.125 25.5208H21.875C23.8853 25.5208 25.5208 23.8853 25.5208 21.875V13.125C25.5208 11.1147 23.8853 9.47917 21.875 9.47917H13.125Z" fill="white"/>
<defs>
<radialGradient id="paint0_radial" cx="0" cy="0" r="1" gradientUnits="userSpaceOnUse" gradientTransform="translate(14.1312 30.6505) scale(32.7389)">
<stop stop-color="#FFDD55"/>
<stop offset="0.328" stop-color="#FF543F"/>
<stop offset="0.348" stop-color="#FC5245"/>
<stop offset="0.504" stop-color="#E64771"/>
<stop offset="0.643" stop-color="#D53E91"/>
<stop offset="0.761" stop-color="#CC39A4"/>
<stop offset="0.841" stop-color="#C837AB"/>
</radialGradient>
<radialGradient id="paint1_radial" cx="0" cy="0" r="1" gradientUnits="userSpaceOnUse" gradientTransform="translate(8.59396 4.03981) scale(21.7386 14.4845)">
<stop stop-color="#4168C9"/>
<stop offset="0.999" stop-color="#4168C9" stop-opacity="0"/>
</radialGradient>
</defs>
</svg>
