<svg width="468" height="329" viewBox="0 0 468 329" fill="none" xmlns="http://www.w3.org/2000/svg">
<g clip-path="url(#clip0)">
<path d="M239.017 328.303C253.093 328.303 264.504 316.92 264.504 302.879C264.504 288.837 253.093 277.454 239.017 277.454C224.941 277.454 213.53 288.837 213.53 302.879C213.53 316.92 224.941 328.303 239.017 328.303Z" fill="#DC5C68"/>
<path d="M391.276 326.874C405.535 322.603 420.693 318.148 432.001 307.994C442.106 298.919 448.928 285.063 444.742 271.454C440.564 257.873 428.051 248.817 415.132 244.313C407.804 241.759 400.139 240.342 392.476 239.228C384.145 238.018 375.778 237.027 367.415 236.072C333.552 232.209 299.562 229.849 265.444 228.992C248.609 228.569 231.778 228.579 214.94 228.823C199.904 229.041 184.067 229.035 170.118 222.66C159.27 217.702 149.425 208.683 146.402 196.83C142.913 183.149 149.348 169.216 158.58 159.307C163.446 154.084 169.134 149.688 175 145.645C181.365 141.26 187.952 137.186 194.681 133.382C207.935 125.895 221.791 119.522 236.106 114.331C243.168 111.77 250.335 109.56 257.564 107.521C263.668 105.8 269.791 104.076 275.69 101.73C287.095 97.1963 297.942 89.5159 300.841 76.9246C303.59 64.9911 298.956 52.0362 290.832 43.171C281.434 32.9146 267.263 28.4185 253.677 27.6911C238.425 26.8744 223.524 30.6823 209.188 35.515C193.898 40.6694 178.937 46.5961 163.324 50.7712C147.841 54.9073 132.059 57.8338 116.12 59.5241C108.318 60.3528 100.28 61.2887 92.4309 60.6542C85.8529 60.1224 79.3084 58.1926 74.4605 53.5356C70.3037 49.5425 67.8274 44.0546 68.6787 38.2633C68.8334 37.2114 70.4352 37.6586 70.2816 38.704C69.2452 45.7538 74.0491 52.2499 79.9688 55.5775C86.8104 59.4234 95.1357 59.4286 102.753 58.9888C119.269 57.9937 135.673 55.6282 151.795 51.9167C167.637 48.3072 182.913 43.1474 198.172 37.6355C212.664 32.4006 227.48 27.2913 242.962 26.1574C256.396 25.1736 270.527 27.1259 282.231 34.1291C292.516 40.2839 300.079 50.5482 302.489 62.3267C304.844 73.8364 301.583 85.4212 292.849 93.4531C283.806 101.769 271.406 105.325 259.851 108.599C245.195 112.752 230.853 117.607 216.971 123.91C202.9 130.282 189.405 137.85 176.635 146.531C164.31 154.934 152.146 165.506 148.247 180.495C146.432 187.478 146.767 194.883 149.805 201.478C152.507 207.342 156.956 212.275 162.139 216.08C174.506 225.158 190.093 227.021 205.031 227.207C221.809 227.415 238.587 226.85 255.371 227.125C289.574 227.685 323.708 229.762 357.771 233.355C366.306 234.257 374.831 235.253 383.345 236.344C391.003 237.325 398.687 238.301 406.216 240.044C419.603 243.144 432.63 249.104 440.951 260.426C444.644 265.334 446.932 271.15 447.57 277.254C448.153 283.623 446.589 290.004 443.703 295.67C437.313 308.211 425.345 316.188 412.635 321.428C405.827 324.235 398.766 326.362 391.718 328.473C390.691 328.781 390.253 327.181 391.276 326.874L391.276 326.874Z" fill="#DC5C68"/>
<path d="M69.752 51.6773C77.096 51.6773 83.0495 45.7385 83.0495 38.4126C83.0495 31.0867 77.096 25.1478 69.752 25.1478C62.4081 25.1478 56.4546 31.0867 56.4546 38.4126C56.4546 45.7385 62.4081 51.6773 69.752 51.6773Z" fill="white"/>
<path d="M162.003 76.825C169.347 76.825 175.3 70.8862 175.3 63.5603C175.3 56.2344 169.347 50.2955 162.003 50.2955C154.659 50.2955 148.705 56.2344 148.705 63.5603C148.705 70.8862 154.659 76.825 162.003 76.825Z" fill="white"/>
<path d="M240.125 26.5295C247.469 26.5295 253.423 20.5907 253.423 13.2648C253.423 5.93883 247.469 0 240.125 0C232.781 0 226.828 5.93883 226.828 13.2648C226.828 20.5907 232.781 26.5295 240.125 26.5295Z" fill="white"/>
<path d="M288.882 82.9048C296.226 82.9048 302.18 76.9659 302.18 69.64C302.18 62.3141 296.226 56.3752 288.882 56.3752C281.538 56.3752 275.585 62.3141 275.585 69.64C275.585 76.9659 281.538 82.9048 288.882 82.9048Z" fill="white"/>
<path d="M222.949 148.123C230.293 148.123 236.247 142.184 236.247 134.858C236.247 127.532 230.293 121.594 222.949 121.594C215.605 121.594 209.652 127.532 209.652 134.858C209.652 142.184 215.605 148.123 222.949 148.123Z" fill="white"/>
<path d="M139.286 179.627C146.63 179.627 152.584 173.688 152.584 166.362C152.584 159.036 146.63 153.097 139.286 153.097C131.942 153.097 125.989 159.036 125.989 166.362C125.989 173.688 131.942 179.627 139.286 179.627Z" fill="white"/>
<path d="M227.936 228.817C235.28 228.817 241.233 222.878 241.233 215.552C241.233 208.226 235.28 202.288 227.936 202.288C220.592 202.288 214.638 208.226 214.638 215.552C214.638 222.878 220.592 228.817 227.936 228.817Z" fill="white"/>
<path d="M323.234 256.452C330.578 256.452 336.531 250.513 336.531 243.187C336.531 235.861 330.578 229.922 323.234 229.922C315.89 229.922 309.937 235.861 309.937 243.187C309.937 250.513 315.89 256.452 323.234 256.452Z" fill="#DC5C68"/>
<path d="M434.6 250.372C441.944 250.372 447.897 244.433 447.897 237.108C447.897 229.782 441.944 223.843 434.6 223.843C427.256 223.843 421.302 229.782 421.302 237.108C421.302 244.433 427.256 250.372 434.6 250.372Z" fill="white"/>
<path d="M236.287 37.5854C196.455 37.8661 163.84 70.1559 163.275 109.887C163.269 110.254 163.267 112.834 163.267 116.207C163.267 121.153 165.237 125.897 168.743 129.395C172.249 132.893 177.005 134.858 181.963 134.858C184.421 134.858 186.855 134.374 189.126 133.435C191.396 132.496 193.459 131.12 195.196 129.385C196.933 127.65 198.311 125.591 199.25 123.325C200.189 121.059 200.671 118.63 200.669 116.178C200.667 113.884 200.666 112.295 200.666 112.198C200.665 106.057 202.266 100.022 205.312 94.6864C208.358 89.3504 212.744 84.8974 218.039 81.7652C223.333 78.6331 229.354 76.9298 235.508 76.8229C241.663 76.716 247.74 78.2091 253.14 81.1554C258.541 84.1017 263.08 88.3997 266.31 93.6266C269.541 98.8535 271.352 104.829 271.565 110.966C271.778 117.103 270.386 123.189 267.525 128.627C264.665 134.064 260.435 138.665 255.252 141.977L255.258 141.985C255.258 141.985 228.648 159.074 220.535 182.517L220.542 182.519C219.115 187.321 218.393 192.304 218.396 197.313C218.396 199.372 218.517 217.388 218.752 232.01C218.834 237.056 220.901 241.867 224.507 245.405C228.113 248.944 232.969 250.926 238.028 250.925C240.569 250.925 243.086 250.424 245.433 249.45C247.779 248.476 249.91 247.048 251.701 245.25C253.493 243.452 254.911 241.318 255.872 238.971C256.834 236.624 257.321 234.11 257.306 231.575C257.224 218.183 257.18 202.59 257.18 201.459C257.18 187.064 271.101 172.721 282.536 163.368C295.703 152.598 305.179 137.92 308.985 121.363C309.827 117.955 310.291 114.464 310.37 110.954C310.37 101.274 308.45 91.6903 304.72 82.7541C300.99 73.8178 295.525 65.7061 288.639 58.8862C281.753 52.0664 273.582 46.6732 264.597 43.0174C255.612 39.3616 245.99 37.5155 236.287 37.5854Z" fill="#DC5C68"/>
<path d="M467.34 329H0.659724C0.485089 328.999 0.317784 328.93 0.194477 328.807C0.0711702 328.683 0.00192261 328.516 0.00192261 328.342C0.00192261 328.168 0.0711702 328.001 0.194477 327.877C0.317784 327.754 0.485089 327.684 0.659724 327.684H467.34C467.515 327.684 467.683 327.753 467.807 327.877C467.931 328 468 328.167 468 328.342C468 328.516 467.931 328.684 467.807 328.807C467.683 328.931 467.515 329 467.34 329Z" fill="white"/>
<path d="M348.198 150.884C357.378 150.884 364.82 143.461 364.82 134.303C364.82 125.146 357.378 117.722 348.198 117.722C339.018 117.722 331.576 125.146 331.576 134.303C331.576 143.461 339.018 150.884 348.198 150.884Z" fill="#2F2E41"/>
<path d="M317.482 321.742H310.69L307.458 295.606H317.484L317.482 321.742Z" fill="#A0616A"/>
<path d="M305.838 319.805H318.938V328.033H297.59C297.59 326.953 297.803 325.883 298.218 324.885C298.632 323.886 299.24 322.979 300.006 322.215C300.772 321.451 301.681 320.845 302.682 320.432C303.682 320.018 304.755 319.805 305.838 319.805Z" fill="#2F2E41"/>
<path d="M370.118 321.742H363.326L360.094 295.606H370.12L370.118 321.742Z" fill="#A0616A"/>
<path d="M358.474 319.805H371.574V328.033H350.226C350.226 326.953 350.439 325.883 350.853 324.885C351.268 323.886 351.875 322.979 352.641 322.215C353.407 321.451 354.317 320.845 355.317 320.432C356.318 320.018 357.391 319.805 358.474 319.805Z" fill="#2F2E41"/>
<path d="M345.672 150.981C353.187 150.981 359.28 144.904 359.28 137.406C359.28 129.909 353.187 123.832 345.672 123.832C338.156 123.832 332.064 129.909 332.064 137.406C332.064 144.904 338.156 150.981 345.672 150.981Z" fill="#A0616A"/>
<path d="M353.783 194.774L359.872 180.818C361.351 177.545 361.774 173.894 361.085 170.369C360.395 166.845 358.626 163.621 356.021 161.142C355.486 160.615 354.918 160.122 354.32 159.667C351.316 157.322 347.613 156.044 343.799 156.035C341.234 156.045 338.701 156.607 336.374 157.682C336.175 157.771 335.981 157.865 335.781 157.959C335.399 158.141 335.022 158.34 334.657 158.545C332.271 159.911 330.241 161.817 328.73 164.11C327.219 166.402 326.27 169.017 325.958 171.743L323.271 194.205C322.595 195.968 298.482 259.639 306.915 308.248C307.005 308.768 307.258 309.244 307.639 309.609C308.02 309.974 308.508 310.208 309.031 310.277L317.581 311.438C318.205 311.523 318.838 311.369 319.353 311.007C319.868 310.645 320.227 310.102 320.356 309.486L334.701 241.278C334.79 240.854 335.02 240.473 335.352 240.194C335.684 239.915 336.101 239.756 336.535 239.742C336.969 239.727 337.395 239.858 337.745 240.113C338.096 240.369 338.351 240.734 338.468 241.151L358.736 312.88C358.88 313.401 359.192 313.861 359.624 314.188C360.055 314.516 360.582 314.693 361.124 314.693C361.286 314.692 361.447 314.677 361.606 314.649L372.05 312.642C372.657 312.529 373.2 312.194 373.572 311.702C373.944 311.21 374.119 310.597 374.061 309.984C372.527 292.911 364.371 207.392 353.783 194.774Z" fill="#2F2E41"/>
<path d="M292.787 148.703C292.692 149.51 292.776 150.328 293.033 151.099C293.29 151.871 293.713 152.576 294.272 153.166C294.832 153.757 295.515 154.218 296.272 154.516C297.03 154.815 297.843 154.944 298.656 154.895L306.263 173.13L312.017 164.622L303.911 148.61C303.738 147.253 303.072 146.007 302.04 145.107C301.007 144.207 299.679 143.716 298.308 143.728C296.936 143.739 295.617 144.252 294.599 145.169C293.582 146.086 292.937 147.344 292.787 148.703L292.787 148.703Z" fill="#A0616A"/>
<path d="M344.917 213.135C345.726 213.038 346.504 212.766 347.196 212.338C347.888 211.909 348.477 211.334 348.922 210.654C349.367 209.973 349.657 209.204 349.772 208.399C349.887 207.595 349.823 206.775 349.586 205.998L365.59 194.37L355.955 190.771L342.234 202.364C340.952 202.849 339.892 203.785 339.255 204.997C338.618 206.208 338.449 207.611 338.78 208.938C339.111 210.266 339.918 211.427 341.049 212.2C342.18 212.973 343.557 213.306 344.917 213.135Z" fill="#A0616A"/>
<path d="M318.828 185.287C318.214 185.287 317.602 185.226 317 185.107C315.544 184.831 314.179 184.202 313.025 183.275C311.87 182.348 310.962 181.152 310.38 179.793L299.723 166.83C299.498 166.556 299.334 166.237 299.242 165.895C299.151 165.552 299.133 165.194 299.192 164.845C299.25 164.495 299.383 164.162 299.58 163.867C299.778 163.573 300.037 163.324 300.339 163.138L307.921 158.456C308.201 158.283 308.512 158.167 308.837 158.115C309.162 158.063 309.495 158.075 309.815 158.152C310.135 158.228 310.437 158.368 310.703 158.561C310.969 158.755 311.194 158.999 311.365 159.28L318.876 171.624L333.26 161.019C334.405 160.42 335.728 160.252 336.987 160.546C338.247 160.84 339.358 161.575 340.118 162.619C340.878 163.662 341.237 164.944 341.128 166.229C341.02 167.515 340.451 168.718 339.526 169.62L325.169 182.684C323.482 184.352 321.203 185.288 318.828 185.287Z" fill="#2F2E41"/>
<path d="M357.695 204.782C357.675 204.782 357.656 204.782 357.636 204.782C357.287 204.773 356.943 204.691 356.627 204.542C356.311 204.392 356.03 204.178 355.802 203.914L349.061 196.069C348.831 195.802 348.661 195.489 348.562 195.152C348.462 194.814 348.436 194.459 348.484 194.111C348.532 193.762 348.654 193.428 348.841 193.129C349.029 192.831 349.277 192.576 349.571 192.381L362.193 183.987L350.758 170.273C350.093 169.167 349.849 167.859 350.071 166.588C350.293 165.317 350.965 164.168 351.966 163.351C352.967 162.534 354.229 162.104 355.522 162.138C356.814 162.173 358.051 162.67 359.007 163.54L372.905 177.088C373.998 178.085 374.833 179.331 375.338 180.721C375.842 182.11 376.001 183.601 375.801 185.066C375.601 186.53 375.047 187.924 374.188 189.128C373.329 190.332 372.19 191.31 370.868 191.978L359.509 204.001C359.276 204.248 358.995 204.444 358.683 204.578C358.371 204.713 358.035 204.782 357.695 204.782Z" fill="#2F2E41"/>
<path d="M342.212 175.876C342.103 175.876 341.995 175.87 341.888 175.856C341.419 175.799 340.975 175.609 340.611 175.308C340.247 175.008 339.976 174.609 339.832 174.16L334.767 158.668C334.64 158.276 334.66 157.852 334.822 157.474C334.984 157.095 335.278 156.788 335.65 156.609L335.814 156.532C335.963 156.461 336.111 156.391 336.262 156.324C338.624 155.232 341.195 154.662 343.799 154.654C347.179 154.66 350.483 155.65 353.307 157.504C353.686 157.755 353.95 158.145 354.043 158.589C354.137 159.033 354.052 159.495 353.806 159.877L344.304 174.727C344.081 175.08 343.773 175.37 343.407 175.571C343.041 175.772 342.629 175.877 342.212 175.876Z" fill="#E6E6E6"/>
<path d="M361.302 126.901C364.306 126.901 366.742 124.472 366.742 121.475C366.742 118.479 364.306 116.05 361.302 116.05C358.299 116.05 355.863 118.479 355.863 121.475C355.863 124.472 358.299 126.901 361.302 126.901Z" fill="#2F2E41"/>
<path d="M342.657 115.512C338.837 115.512 335.172 117.026 332.471 119.721C329.769 122.416 328.252 126.071 328.252 129.882V135.962H335.748L339.333 129.882L340.408 135.962H363.157L357.063 129.882C357.063 126.071 355.545 122.416 352.843 119.721C350.142 117.026 346.478 115.512 342.657 115.512Z" fill="#2F2E41"/>
<path d="M364.098 117.759C364.699 115.883 365.945 114.278 367.615 113.227C369.285 112.177 371.273 111.747 373.229 112.013C376.695 112.591 379.436 115.371 381.069 118.475C382.702 121.579 383.456 125.053 384.554 128.384C385.651 131.714 387.208 135.062 389.98 137.218C392.751 139.374 397.003 139.959 399.725 137.741C399.414 140.052 398.383 142.207 396.777 143.902C395.171 145.596 393.071 146.744 390.775 147.182C388.48 147.621 386.104 147.329 383.983 146.347C381.863 145.365 380.106 143.743 378.961 141.71C377.525 139.161 377.154 136.174 376.728 133.281C376.302 130.388 375.749 127.395 374.034 125.023C372.319 122.652 369.11 121.103 366.386 122.183L364.098 117.759Z" fill="#2F2E41"/>
<path d="M187.242 126.036C182.284 126.036 177.528 124.071 174.022 120.573C170.516 117.075 168.546 112.331 168.546 107.385C168.546 104.012 168.548 101.432 168.553 101.065C168.711 89.5104 171.628 78.1594 177.063 67.954C168.134 80.1481 163.224 94.8091 163.013 109.909C163.008 110.275 163.005 112.855 163.005 116.228C163.006 121.175 164.976 125.918 168.482 129.416C171.988 132.914 176.743 134.879 181.702 134.88C185.776 134.878 189.739 133.55 192.988 131.097C196.237 128.644 198.594 125.2 199.702 121.288C196.278 124.351 191.841 126.042 187.242 126.036Z" fill="#3F3D56"/>
<path d="M237.554 76.8854C243.287 77.1585 248.867 78.8154 253.816 81.7137C258.765 84.6121 262.935 88.6654 265.968 93.5255C269.001 98.3856 270.806 103.907 271.228 109.617C271.651 115.326 270.678 121.052 268.393 126.304C271.698 122.432 274.127 117.895 275.515 113.002C276.902 108.108 277.216 102.974 276.434 97.949C275.653 92.9238 273.794 88.1259 270.985 83.8823C268.176 79.6387 264.483 76.0492 260.157 73.3585C255.831 70.6678 250.975 68.9392 245.918 68.2905C240.862 67.6419 235.725 68.0884 230.858 69.5996C225.99 71.1109 221.507 73.6513 217.713 77.0478C213.919 80.4443 210.903 84.6169 208.873 89.2812C212.383 85.1621 216.794 81.9023 221.767 79.7531C226.74 77.604 232.141 76.6228 237.554 76.8854Z" fill="#3F3D56"/>
<path d="M243.306 242.103C238.248 242.104 233.392 240.122 229.786 236.583C226.18 233.045 224.113 228.234 224.031 223.188C223.796 208.566 223.675 190.55 223.675 188.491C223.671 183.482 224.394 178.499 225.821 173.697L225.814 173.695C226.657 171.284 227.674 168.938 228.858 166.675C225.223 171.508 222.329 176.855 220.274 182.538L220.28 182.54C218.854 187.342 218.131 192.326 218.134 197.334C218.134 199.393 218.256 217.409 218.49 232.032C218.572 237.077 220.639 241.888 224.245 245.426C227.851 248.965 232.707 250.947 237.766 250.946C241.937 250.945 245.995 249.596 249.331 247.1C252.668 244.604 255.103 241.096 256.272 237.102C252.728 240.326 248.103 242.11 243.306 242.103Z" fill="#3F3D56"/>
<path d="M70.1112 321.994L76.9034 321.993L80.1352 295.857L70.1095 295.858L70.1112 321.994Z" fill="#FFB8B8"/>
<path d="M90.0039 328.285L68.6557 328.286L68.6553 320.058L81.7554 320.057C83.9429 320.057 86.0409 320.924 87.5878 322.467C89.1347 324.01 90.0038 326.102 90.0039 328.285L90.0039 328.285Z" fill="#2F2E41"/>
<path d="M45.7326 321.994L52.5248 321.993L55.7566 295.857L45.7309 295.858L45.7326 321.994Z" fill="#FFB8B8"/>
<path d="M65.6253 328.285L44.2771 328.286L44.2767 320.058L57.3768 320.057C59.5643 320.057 61.6623 320.924 63.2092 322.467C64.7561 324.01 65.6252 326.102 65.6253 328.285L65.6253 328.285Z" fill="#2F2E41"/>
<path d="M51.6684 313.955L45.0335 313.607C44.6914 313.589 44.3563 313.504 44.0475 313.356C43.7387 313.208 43.4625 313 43.2348 312.745C43.0071 312.489 42.8324 312.191 42.721 311.868C42.6095 311.545 42.5634 311.203 42.5854 310.862L50.5155 223.278L87.0341 233.108L90.5525 232.151L79.5498 309.686C79.4561 310.269 79.1657 310.803 78.7267 311.2C78.2877 311.596 77.7262 311.831 77.1351 311.866L69.9828 312.199C69.6252 312.218 69.2673 312.164 68.9319 312.039C68.5964 311.914 68.2906 311.72 68.0338 311.471C67.777 311.222 67.5748 310.923 67.44 310.592C67.3052 310.261 67.2406 309.905 67.2505 309.548L68.5464 263.013C68.5525 262.798 68.4775 262.588 68.3364 262.425C68.1952 262.262 67.998 262.158 67.7836 262.133C67.5693 262.108 67.3533 262.164 67.1783 262.29C67.0033 262.416 66.882 262.603 66.8382 262.814L54.3403 311.9C54.2223 312.483 53.9055 313.006 53.4439 313.382C52.9822 313.757 52.4043 313.961 51.8087 313.959C51.7622 313.959 51.7155 313.958 51.6684 313.955Z" fill="#2F2E41"/>
<path d="M71.3307 151.616C78.8463 151.616 84.939 145.538 84.939 138.041C84.939 130.544 78.8463 124.466 71.3307 124.466C63.8151 124.466 57.7224 130.544 57.7224 138.041C57.7224 145.538 63.8151 151.616 71.3307 151.616Z" fill="#FFB8B8"/>
<path d="M48.6739 177.923L50.1701 210.128L50.711 221.844C50.7326 222.354 50.9062 222.846 51.2096 223.257C51.5131 223.668 51.9325 223.98 52.4144 224.152L87.5063 236.833C87.7897 236.938 88.0901 236.99 88.3925 236.988C88.7382 236.989 89.0806 236.921 89.3994 236.788C89.7182 236.655 90.0068 236.459 90.248 236.212C90.4891 235.965 90.678 235.672 90.8031 235.35C90.9283 235.029 90.9872 234.686 90.9765 234.341L89.5378 176.437C89.4433 171.686 87.6902 167.117 84.5807 163.517C81.4712 159.918 77.2002 157.513 72.504 156.718C72.1646 156.666 71.8192 156.615 71.4739 156.569C68.5618 156.208 65.6059 156.488 62.8141 157.39C60.0224 158.291 57.4625 159.792 55.3147 161.787C53.0908 163.827 51.3432 166.33 50.1957 169.118C49.0482 171.907 48.5286 174.913 48.6738 177.923L48.6739 177.923Z" fill="#CCCCCC"/>
<path d="M104.27 230.407C103.44 230.15 102.681 229.703 102.055 229.101C101.429 228.5 100.953 227.761 100.664 226.944C100.375 226.126 100.281 225.253 100.391 224.393C100.5 223.533 100.81 222.71 101.295 221.991L89.3949 206.206L99.664 205.572L109.39 220.659C110.431 221.462 111.156 222.605 111.437 223.888C111.717 225.17 111.537 226.511 110.926 227.674C110.315 228.837 109.313 229.748 108.096 230.248C106.879 230.747 105.524 230.804 104.27 230.407H104.27Z" fill="#FFB8B8"/>
<path d="M95.9026 219.134C95.5874 219.007 95.3006 218.818 95.0589 218.579C94.8173 218.34 94.6255 218.056 94.4947 217.742L76.5663 175.132C76.2146 174.298 76.031 173.403 76.0262 172.498C76.0215 171.593 76.1955 170.696 76.5385 169.858C76.8814 169.02 77.3865 168.258 78.0249 167.615C78.6634 166.971 79.4225 166.46 80.2591 166.11C81.0957 165.76 81.9933 165.577 82.9006 165.573C83.8079 165.569 84.7071 165.743 85.5468 166.086C86.3865 166.429 87.1502 166.933 87.7944 167.571C88.4386 168.208 88.9506 168.966 89.301 169.801L107.229 212.411C107.494 213.043 107.497 213.754 107.238 214.388C106.978 215.022 106.477 215.527 105.844 215.793L97.8847 219.125C97.5714 219.257 97.2348 219.326 96.8946 219.328C96.5544 219.329 96.2172 219.264 95.9026 219.134L95.9026 219.134Z" fill="#CCCCCC"/>
<path d="M66.9555 217.631L84.1753 184.741C84.5073 184.108 85.0774 183.633 85.7603 183.419C86.4432 183.205 87.1833 183.271 87.8181 183.6L112.813 196.622C113.447 196.953 113.923 197.522 114.138 198.203C114.352 198.884 114.287 199.623 113.956 200.256L96.7361 233.146C96.404 233.779 95.834 234.254 95.1511 234.468C94.4681 234.682 93.728 234.617 93.0932 234.287L68.0988 221.265C67.4647 220.934 66.9882 220.365 66.7739 219.684C66.5595 219.003 66.6249 218.265 66.9555 217.631Z" fill="#3F3D56"/>
<path d="M78.5037 202.605C78.1976 201.793 77.7056 201.064 77.067 200.477C76.4284 199.889 75.6608 199.458 74.8256 199.218C73.9904 198.979 73.1107 198.937 72.2566 199.097C71.4024 199.257 70.5976 199.614 69.9064 200.139L53.4073 189.221L53.3793 199.485L69.0513 208.279C69.9164 209.269 71.1032 209.923 72.4034 210.127C73.7036 210.33 75.0342 210.071 76.1619 209.394C77.2896 208.717 78.1423 207.666 78.5705 206.424C78.9987 205.183 78.9751 203.83 78.5037 202.605Z" fill="#FFB8B8"/>
<path d="M57.6434 204.913L44.1594 194.258C42.7006 193.769 41.3826 192.935 40.3183 191.826C39.254 190.718 38.4753 189.368 38.0491 187.893C37.6228 186.418 37.5617 184.862 37.8709 183.359C38.1802 181.855 38.8507 180.449 39.8247 179.26L52.0678 163.254C52.9186 162.217 54.1152 161.52 55.4387 161.291C56.7623 161.061 58.1244 161.314 59.2762 162.004C60.428 162.694 61.2924 163.774 61.7115 165.048C62.1306 166.321 62.0763 167.702 61.5586 168.939L51.8716 184.746L66.1076 191.481C66.4386 191.638 66.7326 191.863 66.97 192.141C67.2075 192.42 67.383 192.745 67.485 193.096C67.587 193.447 67.6132 193.816 67.5618 194.178C67.5105 194.539 67.3827 194.886 67.1869 195.195L61.4404 204.267C61.2461 204.574 60.9896 204.836 60.6873 205.037C60.3851 205.238 60.0439 205.373 59.6858 205.434C59.6716 205.437 59.6573 205.439 59.643 205.441C59.2912 205.494 58.9322 205.474 58.5883 205.384C58.2443 205.293 57.9227 205.132 57.6434 204.913Z" fill="#CCCCCC"/>
<path d="M61.0479 147.131C60.9895 146.961 60.971 146.779 60.9938 146.601C61.0165 146.422 61.08 146.251 61.1793 146.101C61.2786 145.95 61.411 145.825 61.5665 145.733C61.722 145.642 61.8965 145.587 62.0764 145.573C62.445 145.593 62.8057 145.687 63.1367 145.85C63.4677 146.013 63.7622 146.241 64.0024 146.521C64.4949 147.087 65.0682 147.579 65.704 147.978C66.3623 148.309 67.2551 148.262 67.6304 147.631C67.9828 147.039 67.7413 146.245 67.528 145.557C66.9851 143.805 66.6814 141.989 66.6249 140.157C66.5635 138.112 66.8527 135.977 67.9878 134.382C69.4526 132.324 72.0719 131.542 74.5508 131.599C77.0297 131.655 79.4684 132.419 81.9238 132.901C82.7714 133.068 83.7678 133.153 84.3348 132.498C84.9376 131.801 84.7162 130.673 84.4598 129.732C83.7944 127.291 83.0885 124.766 81.5425 122.794C79.8709 120.745 77.4832 119.404 74.8601 119.041C72.3418 118.73 69.7855 119.02 67.4012 119.886C63.5166 121.108 60.0984 123.483 57.6038 126.695C55.0323 130.11 53.9211 134.403 54.5132 138.633C55.0917 142.318 57.049 145.647 59.9906 147.949L61.0479 147.131Z" fill="#2F2E41"/>
<path d="M233.402 322.101C229.781 320.528 226.577 318.138 224.041 315.118C221.506 312.098 219.708 308.531 218.791 304.699C217.874 300.868 217.862 296.876 218.756 293.039C219.65 289.202 221.426 285.625 223.944 282.59C221.025 284.716 218.593 287.437 216.809 290.572C215.025 293.707 213.929 297.185 213.596 300.775C213.262 304.365 213.698 307.984 214.873 311.393C216.049 314.802 217.938 317.923 220.416 320.548C222.893 323.173 225.902 325.242 229.242 326.619C232.582 327.995 236.178 328.647 239.79 328.531C243.402 328.416 246.948 327.535 250.193 325.947C253.438 324.36 256.307 322.102 258.611 319.324C255.018 321.944 250.8 323.578 246.377 324.066C241.955 324.553 237.481 323.876 233.402 322.101Z" fill="#3F3D56"/>
</g>
<defs>
<clipPath id="clip0">
<rect width="468" height="329" fill="white"/>
</clipPath>
</defs>
</svg>
