<svg width="35" height="35" viewBox="0 0 35 35" fill="none" xmlns="http://www.w3.org/2000/svg">
<path d="M33.6182 8.03541C32.4873 8.53635 31.271 8.87031 29.9877 9.02854C31.2922 8.25416 32.2963 7.01896 32.7673 5.55916C31.5467 6.27448 30.1941 6.80021 28.7554 7.07729C27.6063 5.85958 25.9671 5.10416 24.1515 5.10416C20.6639 5.10416 17.8362 7.90635 17.8362 11.3619C17.8362 11.8511 17.8938 12.3273 18.0009 12.7896C12.7539 12.5264 8.09959 10.0319 4.98605 6.24604C4.43917 7.17135 4.13147 8.25416 4.13147 9.3975C4.13147 11.5697 5.24345 13.4823 6.93949 14.6089C5.90407 14.5775 4.9299 14.2895 4.07678 13.8272C4.07678 13.8461 4.07678 13.8739 4.07678 13.9008C4.07678 16.9364 6.25407 19.4644 9.14011 20.0397C8.61292 20.1841 8.05511 20.2643 7.48053 20.2643C7.07292 20.2643 6.67553 20.2183 6.29053 20.1491C7.09407 22.6297 9.42522 24.4431 12.1873 24.4971C10.0261 26.1727 7.30407 27.176 4.34438 27.176C3.83324 27.176 3.33303 27.1469 2.83865 27.0871C5.63647 28.8582 8.95636 29.8958 12.5205 29.8958C24.134 29.8958 30.4879 20.3591 30.4879 12.0852C30.4879 11.814 30.4792 11.5442 30.4668 11.2773C31.7064 10.4016 32.7746 9.2976 33.6182 8.03541Z" fill="url(#paint0_linear)"/>
<defs>
<linearGradient id="paint0_linear" x1="7.54032" y1="6.06083" x2="29.7486" y2="28.2691" gradientUnits="userSpaceOnUse">
<stop stop-color="#2AA4F4"/>
<stop offset="1" stop-color="#007AD9"/>
</linearGradient>
</defs>
</svg>
