<svg width="35" height="35" viewBox="0 0 35 35" fill="none" xmlns="http://www.w3.org/2000/svg">
<path d="M32.8213 25.2C32.5012 26.8333 31.1413 28.078 29.4613 28.3114C26.8209 28.7 22.4204 29.1667 17.4599 29.1667C12.5796 29.1667 8.17907 28.7 5.45855 28.3114C3.77855 28.078 2.41793 26.8333 2.09855 25.2C1.77845 23.4114 1.45834 20.7667 1.45834 17.5C1.45834 14.2333 1.77845 11.5886 2.09855 9.8C2.41866 8.16667 3.77855 6.92198 5.45855 6.68865C8.09886 6.3 12.4994 5.83334 17.4599 5.83334C22.4204 5.83334 26.7407 6.3 29.4613 6.68865C31.1413 6.92198 32.5019 8.16667 32.8213 9.8C33.1414 11.5886 33.5417 14.2333 33.5417 17.5C33.4615 20.7667 33.1414 23.4114 32.8213 25.2Z" fill="url(#paint0_linear)"/>
<path opacity="0.05" d="M23.59 16.3625L15.2512 10.8033C14.8305 10.5226 14.2931 10.4964 13.8476 10.7355C13.4021 10.974 13.125 11.4355 13.125 11.9408V23.0592C13.125 23.5645 13.4021 24.0268 13.8476 24.2652C14.0503 24.3739 14.2712 24.4271 14.4922 24.4271C14.7576 24.4271 15.0216 24.3498 15.2505 24.1974L23.5893 18.6382C23.9706 18.3837 24.1981 17.9586 24.1981 17.5007C24.1989 17.0421 23.9706 16.617 23.59 16.3625Z" fill="black"/>
<path opacity="0.07" d="M15.0799 11.1103L22.9476 16.3559C23.45 16.7169 23.7883 17.0399 23.7883 17.4592C23.7883 17.8784 23.625 18.1708 23.267 18.4319C22.9965 18.6287 15.2133 23.8014 15.2133 23.8014C14.5564 24.2419 13.4896 24.1485 13.4896 22.7084V12.2092C13.4896 10.7472 14.6446 10.8201 15.0799 11.1103Z" fill="black"/>
<path d="M13.8542 23.0183V11.9824C13.8542 11.4406 14.4579 11.1169 14.9093 11.418L23.1868 16.9364C23.59 17.2047 23.59 17.7968 23.1868 18.0658L14.9093 23.5842C14.4579 23.8839 13.8542 23.5608 13.8542 23.0183Z" fill="white"/>
<defs>
<linearGradient id="paint0_linear" x1="7.15751" y1="7.19761" x2="30.0752" y2="30.1153" gradientUnits="userSpaceOnUse">
<stop stop-color="#F44F5A"/>
<stop offset="0.443" stop-color="#EE3D4A"/>
<stop offset="1" stop-color="#E52030"/>
</linearGradient>
</defs>
</svg>
